<?xml version="1.0" encoding="UTF-8"?>
<svg id="Layer_1" xmlns="http://www.w3.org/2000/svg" version="1.1" viewBox="0 0 591.1 479.1">
  <!-- Generator: Adobe Illustrator 29.0.0, SVG Export Plug-In . SVG Version: 2.1.0 Build 186)  -->
  <defs>
    <style>
      .st0 {
        fill: #732002;
      }
    </style>
  </defs>
  <path class="st0" d="M150.1,479.1c-5,0-9-4-9-9V27.9c-36.1,31.6-56.5,67.2-56.5,99.6v148.1c0,9.2,10.3,16.9,22.5,16.9s9,4,9,9v168.6c0,5-4,9-9,9s-9-4-9-9v-160.5c-18-3.5-31.5-17.4-31.5-34V127.5c0-42.2,28.4-88,78-125.7,2.7-2.1,6.4-2.4,9.4-.9,3.1,1.5,5,4.6,5,8.1v461.1c0,5-4,9-9,9h.1Z"/>
  <path class="st0" d="M478.9,479.1c-5,0-9-4-9-9v-239.2c0-5,4-9,9-9s9,4,9,9v239.2c0,5-4,9-9,9Z"/>
  <path class="st0" d="M484.4,239.9h-11c-27.5,0-49.9-22.4-49.9-49.9v-97.3c0-27.5,22.4-49.9,49.9-49.9h11c27.5,0,49.9,22.4,49.9,49.9v97.3c0,27.5-22.4,49.9-49.9,49.9ZM473.4,60.7c-17.6,0-31.9,14.3-31.9,31.9v97.3c0,17.6,14.3,31.9,31.9,31.9h11c17.6,0,31.9-14.3,31.9-31.9v-97.3c0-17.6-14.3-31.9-31.9-31.9h-11Z"/>
  <path class="st0" d="M582.1,479.1H9c-5,0-9-4-9-9s4-9,9-9h573.1c5,0,9,4,9,9s-4,9-9,9Z"/>
  <path class="st0" d="M582.1,479.1H9c-5,0-9-4-9-9s4-9,9-9h573.1c5,0,9,4,9,9s-4,9-9,9Z"/>
  <path class="st0" d="M305.6,479.1c-5,0-9-4-9-9V51c0-5,4-9,9-9s9,4,9,9v419c0,5-4,9-9,9h0Z"/>
  <path class="st0" d="M305.6,209.5c-5,0-9-4-9-9s4-9,9-9c21.8,0,39.5-15.6,39.5-34.8V38.7c0-5,4-9,9-9s9,4,9,9v117.9c0,29.1-25.8,52.8-57.5,52.8h0Z"/>
  <path class="st0" d="M305.6,209.5c-31.7,0-57.5-23.7-57.5-52.8V63.4c0-5,4-9,9-9s9,4,9,9v93.3c0,19.2,17.7,34.8,39.5,34.8s9,4,9,9-4,9-9,9h0Z"/>
  <path class="st0" d="M204.2,85.8c-4,0-7.7-2.7-8.7-6.8-1.2-4.8,1.7-9.7,6.5-10.9l196.5-50c4.8-1.2,9.7,1.7,10.9,6.5s-1.7,9.7-6.5,10.9l-196.5,50c-.7.2-1.5.3-2.2.3Z"/>
</svg>